<svg xmlns="http://www.w3.org/2000/svg" viewBox="0 0 1000 450">
  <!-- 背景渐变 -->
  <defs>
    <linearGradient id="bgGradient" x1="0%" y1="0%" x2="100%" y2="100%">
      <stop offset="0%" stop-color="#0a1a2a" />
      <stop offset="100%" stop-color="#1e3854" />
    </linearGradient>
    
    <!-- 相框渐变 -->
    <linearGradient id="frameGradient" x1="0%" y1="0%" x2="100%" y2="100%">
      <stop offset="0%" stop-color="#2c3e50" stop-opacity="0.8" />
      <stop offset="100%" stop-color="#34495e" stop-opacity="0.8" />
    </linearGradient>
    
    <!-- 玻璃效果 -->
    <filter id="glassEffect">
      <feGaussianBlur in="SourceGraphic" stdDeviation="1" />
      <feColorMatrix type="matrix" values="1 0 0 0 0  0 1 0 0 0  0 0 1 0 0  0 0 0 0.7 0" />
    </filter>
    
    <!-- 光晕效果 -->
    <filter id="glow" x="-50%" y="-50%" width="200%" height="200%">
      <feGaussianBlur stdDeviation="2" result="blur" />
      <feComposite in="SourceGraphic" in2="blur" operator="over" />
    </filter>
    
    <!-- 细线图案 -->
    <pattern id="delicateLines" width="100" height="100" patternUnits="userSpaceOnUse">
      <path d="M0,50 L100,50" stroke="#e74c3c" stroke-width="0.3" stroke-opacity="0.15" fill="none" />
      <path d="M50,0 L50,100" stroke="#3498db" stroke-width="0.3" stroke-opacity="0.15" fill="none" />
      <path d="M0,25 L100,25" stroke="#e74c3c" stroke-width="0.2" stroke-opacity="0.1" fill="none" />
      <path d="M0,75 L100,75" stroke="#e74c3c" stroke-width="0.2" stroke-opacity="0.1" fill="none" />
      <path d="M25,0 L25,100" stroke="#3498db" stroke-width="0.2" stroke-opacity="0.1" fill="none" />
      <path d="M75,0 L75,100" stroke="#3498db" stroke-width="0.2" stroke-opacity="0.1" fill="none" />
    </pattern>
    
    <!-- 心形剪裁路径 -->
    <clipPath id="heartClip">
      <path d="M500,180 
               C500,120 450,100 400,150
               C350,200 400,275 500,330
               C600,275 650,200 600,150
               C550,100 500,120 500,180 Z" />
    </clipPath>
  </defs>
  
  <!-- 背景 -->
  <rect width="1000" height="450" fill="url(#bgGradient)" />
  
  <!-- 细线背景纹理 -->
  <rect width="1000" height="450" fill="url(#delicateLines)" opacity="0.8" />
  
  <!-- 文艺诗句装饰 - 背景 -->
  <g opacity="0.3" font-family="serif">
    <text x="120" y="50" fill="#e74c3c" font-size="11" font-style="italic">
      时光的碎片，记忆的珍藏
    </text>
    <text x="750" y="70" fill="#3498db" font-size="11" font-style="italic">
      每一瞬间，都是永恒
    </text>
    <text x="180" y="380" fill="#e74c3c" font-size="11" font-style="italic">
      影像里的诗，照片中的歌
    </text>
    <text x="680" y="410" fill="#3498db" font-size="11" font-style="italic">
      定格心动的瞬间
    </text>
  </g>
  
  <!-- 科技感元素 - 背景 -->
  <g opacity="0.1">
    <!-- 左上电路 -->
    <path d="M50,50 L150,50 L150,70 L180,70 L180,100 L210,100 L210,120" 
          fill="none" stroke="#3498db" stroke-width="1" />
    <circle cx="150" cy="50" r="3" fill="#3498db" />
    <circle cx="180" cy="70" r="3" fill="#3498db" />
    <circle cx="210" cy="100" r="3" fill="#3498db" />
    
    <!-- 右上电路 -->
    <path d="M950,50 L850,50 L850,70 L820,70 L820,100 L790,100 L790,120" 
          fill="none" stroke="#e74c3c" stroke-width="1" />
    <circle cx="850" cy="50" r="3" fill="#e74c3c" />
    <circle cx="820" cy="70" r="3" fill="#e74c3c" />
    <circle cx="790" cy="100" r="3" fill="#e74c3c" />
    
    <!-- 左下电路 -->
    <path d="M50,400 L150,400 L150,380 L180,380 L180,350 L210,350 L210,330" 
          fill="none" stroke="#3498db" stroke-width="1" />
    <circle cx="150" cy="400" r="3" fill="#3498db" />
    <circle cx="180" cy="380" r="3" fill="#3498db" />
    <circle cx="210" cy="350" r="3" fill="#3498db" />
    
    <!-- 右下电路 -->
    <path d="M950,400 L850,400 L850,380 L820,380 L820,350 L790,350 L790,330" 
          fill="none" stroke="#e74c3c" stroke-width="1" />
    <circle cx="850" cy="400" r="3" fill="#e74c3c" />
    <circle cx="820" cy="380" r="3" fill="#e74c3c" />
    <circle cx="790" cy="350" r="3" fill="#e74c3c" />
  </g>
  
  <!-- 大心形轮廓 -->
  <path d="M500,180 
           C500,120 450,100 400,150
           C350,200 400,275 500,330
           C600,275 650,200 600,150
           C550,100 500,120 500,180 Z" 
        fill="none" stroke="#e74c3c" stroke-width="2" opacity="0.8" />
  
  <!-- 心形内的照片网格 -->
  <g clip-path="url(#heartClip)">
    <!-- 网格背景 -->
    <rect x="350" y="150" width="300" height="180" fill="url(#frameGradient)" filter="url(#glassEffect)" />
    
    <!-- 照片1 - 左上 -->
    <rect x="360" y="160" width="85" height="75" fill="#2c3e50" stroke="#3498db" stroke-width="1" rx="2" ry="2" />
    <rect x="365" y="165" width="75" height="65" fill="#34495e" stroke="#e74c3c" stroke-width="0.5" stroke-dasharray="1,1" />
    
    <!-- 照片2 - 中上 -->
    <rect x="457.5" y="160" width="85" height="75" fill="#2c3e50" stroke="#3498db" stroke-width="1" rx="2" ry="2" />
    <rect x="462.5" y="165" width="75" height="65" fill="#34495e" stroke="#e74c3c" stroke-width="0.5" stroke-dasharray="1,1" />
    
    <!-- 照片3 - 右上 -->
    <rect x="555" y="160" width="85" height="75" fill="#2c3e50" stroke="#3498db" stroke-width="1" rx="2" ry="2" />
    <rect x="560" y="165" width="75" height="65" fill="#34495e" stroke="#e74c3c" stroke-width="0.5" stroke-dasharray="1,1" />
    
    <!-- 照片4 - 左下 -->
    <rect x="360" y="245" width="85" height="75" fill="#2c3e50" stroke="#3498db" stroke-width="1" rx="2" ry="2" />
    <rect x="365" y="250" width="75" height="65" fill="#34495e" stroke="#e74c3c" stroke-width="0.5" stroke-dasharray="1,1" />
    
    <!-- 照片5 - 中下 -->
    <rect x="457.5" y="245" width="85" height="75" fill="#2c3e50" stroke="#3498db" stroke-width="1" rx="2" ry="2" />
    <rect x="462.5" y="250" width="75" height="65" fill="#34495e" stroke="#e74c3c" stroke-width="0.5" stroke-dasharray="1,1" />
    
    <!-- 照片6 - 右下 -->
    <rect x="555" y="245" width="85" height="75" fill="#2c3e50" stroke="#3498db" stroke-width="1" rx="2" ry="2" />
    <rect x="560" y="250" width="75" height="65" fill="#34495e" stroke="#e74c3c" stroke-width="0.5" stroke-dasharray="1,1" />
  </g>
  
  <!-- 心形上的科技装饰 -->
  <g opacity="0.8">
    <!-- 左侧连接线 -->
    <path d="M380,150 C350,140 320,160 310,190 C300,220 320,250 350,260" 
          fill="none" stroke="#3498db" stroke-width="1" stroke-dasharray="5,3" />
    <circle cx="380" cy="150" r="3" fill="#3498db" filter="url(#glow)" />
    <circle cx="310" cy="190" r="3" fill="#3498db" filter="url(#glow)" />
    <circle cx="350" cy="260" r="3" fill="#3498db" filter="url(#glow)" />
    
    <!-- 右侧连接线 -->
    <path d="M620,150 C650,140 680,160 690,190 C700,220 680,250 650,260" 
          fill="none" stroke="#e74c3c" stroke-width="1" stroke-dasharray="5,3" />
    <circle cx="620" cy="150" r="3" fill="#e74c3c" filter="url(#glow)" />
    <circle cx="690" cy="190" r="3" fill="#e74c3c" filter="url(#glow)" />
    <circle cx="650" cy="260" r="3" fill="#e74c3c" filter="url(#glow)" />
    
    <!-- 底部连接线 -->
    <path d="M470,330 C450,350 430,360 400,360" 
          fill="none" stroke="#3498db" stroke-width="1" stroke-dasharray="5,3" />
    <path d="M530,330 C550,350 570,360 600,360" 
          fill="none" stroke="#e74c3c" stroke-width="1" stroke-dasharray="5,3" />
    <circle cx="470" cy="330" r="3" fill="#3498db" filter="url(#glow)" />
    <circle cx="400" cy="360" r="3" fill="#3498db" filter="url(#glow)" />
    <circle cx="530" cy="330" r="3" fill="#e74c3c" filter="url(#glow)" />
    <circle cx="600" cy="360" r="3" fill="#e74c3c" filter="url(#glow)" />
  </g>
  
  <!-- 悬浮相框1 - 左侧 -->
  <g transform="translate(250, 200) rotate(-12)">
    <rect x="-60" y="-45" width="120" height="90" fill="url(#frameGradient)" stroke="#3498db" stroke-width="1.5" rx="3" ry="3" filter="url(#glassEffect)" />
    <rect x="-54" y="-39" width="108" height="78" fill="none" stroke="#e74c3c" stroke-width="0.8" stroke-dasharray="3,2" rx="2" ry="2" />
    <circle cx="0" cy="0" r="15" fill="none" stroke="#ecf0f1" stroke-width="0.8" opacity="0.6" />
  </g>
  
  <!-- 悬浮相框2 - 右侧 -->
  <g transform="translate(750, 200) rotate(12)">
    <rect x="-60" y="-45" width="120" height="90" fill="url(#frameGradient)" stroke="#3498db" stroke-width="1.5" rx="3" ry="3" filter="url(#glassEffect)" />
    <rect x="-54" y="-39" width="108" height="78" fill="none" stroke="#e74c3c" stroke-width="0.8" stroke-dasharray="3,2" rx="2" ry="2" />
    <circle cx="0" cy="0" r="15" fill="none" stroke="#ecf0f1" stroke-width="0.8" opacity="0.6" />
  </g>
  
  <!-- 装饰粒子 -->
  <g opacity="0.6">
    <circle cx="220" cy="150" r="1.5" fill="#3498db" filter="url(#glow)" />
    <circle cx="280" cy="120" r="1.5" fill="#e74c3c" filter="url(#glow)" />
    <circle cx="240" cy="280" r="1.5" fill="#3498db" filter="url(#glow)" />
    <circle cx="300" cy="250" r="1.5" fill="#e74c3c" filter="url(#glow)" />
    
    <circle cx="780" cy="150" r="1.5" fill="#e74c3c" filter="url(#glow)" />
    <circle cx="720" cy="120" r="1.5" fill="#3498db" filter="url(#glow)" />
    <circle cx="760" cy="280" r="1.5" fill="#e74c3c" filter="url(#glow)" />
    <circle cx="700" cy="250" r="1.5" fill="#3498db" filter="url(#glow)" />
    
    <!-- 更多点缀粒子 -->
    <circle cx="150" cy="100" r="1" fill="#e74c3c" filter="url(#glow)" />
    <circle cx="170" cy="330" r="1" fill="#3498db" filter="url(#glow)" />
    <circle cx="830" cy="100" r="1" fill="#3498db" filter="url(#glow)" />
    <circle cx="850" cy="330" r="1" fill="#e74c3c" filter="url(#glow)" />
  </g>
  
  <!-- 标题 -->
  <text x="500" y="80" text-anchor="middle" font-family="Arial" font-size="24" fill="#ecf0f1" font-weight="bold" filter="url(#glow)">
    心形照片墙
  </text>
  <text x="500" y="105" text-anchor="middle" font-family="Arial" font-size="14" fill="#ecf0f1" font-style="italic" opacity="0.8">
    留住美好时光
  </text>
  
  <!-- 底部署名信息 -->
  <text x="500" y="410" text-anchor="middle" font-family="Arial" font-size="12" fill="#ecf0f1" opacity="0.6">
    爱的记忆 | 心形相册 | 2025
  </text>
</svg>