<svg xmlns="http://www.w3.org/2000/svg" viewBox="0 0 949 256">
  <!-- Background and Storm Elements -->
  <defs>
    <!-- Gradient for the sky -->
    <linearGradient id="skyGradient" x1="0%" y1="0%" x2="0%" y2="100%">
      <stop offset="0%" stop-color="#1a1a1a" stop-opacity="1" />
      <stop offset="100%" stop-color="#333333" stop-opacity="1" />
    </linearGradient>
    
    <!-- Night mode styles -->
    <style>
      @media (prefers-color-scheme: dark) {
        .sky { fill: #0a0a0a; }
        .lightning { opacity: 0.9; }
        .rain { opacity: 0.8; }
      }
      
      /* Gray mode styles */
      @media (prefers-color-scheme: light) {
        .sky { fill: #444444; }
        .lightning { opacity: 0.7; }
        .rain { opacity: 0.6; }
      }
    </style>
  </defs>
  
  <!-- Sky background -->
  <rect class="sky" width="949" height="256" fill="url(#skyGradient)" />
  
  <!-- Storm clouds -->
  <path d="M0,60 Q100,20 200,50 Q300,80 400,40 Q500,10 600,50 Q700,90 800,30 Q900,0 949,40 L949,0 L0,0 Z" fill="#222222" />
  <path d="M0,90 Q150,40 300,80 Q450,120 600,70 Q750,30 949,90 L949,40 L0,60 Z" fill="#333333" />
  
  <!-- Rain -->
  <g class="rain">
    <!-- Multiple groups of rain lines -->
    <g opacity="0.6">
      <line x1="50" y1="0" x2="30" y2="50" stroke="#aaaaaa" stroke-width="1" />
      <line x1="100" y1="0" x2="80" y2="50" stroke="#aaaaaa" stroke-width="1" />
      <line x1="150" y1="0" x2="130" y2="50" stroke="#aaaaaa" stroke-width="1" />
      <line x1="200" y1="0" x2="180" y2="50" stroke="#aaaaaa" stroke-width="1" />
      <line x1="250" y1="0" x2="230" y2="50" stroke="#aaaaaa" stroke-width="1" />
      <line x1="300" y1="0" x2="280" y2="50" stroke="#aaaaaa" stroke-width="1" />
      <line x1="350" y1="0" x2="330" y2="50" stroke="#aaaaaa" stroke-width="1" />
      <line x1="400" y1="0" x2="380" y2="50" stroke="#aaaaaa" stroke-width="1" />
      <line x1="450" y1="0" x2="430" y2="50" stroke="#aaaaaa" stroke-width="1" />
      <line x1="500" y1="0" x2="480" y2="50" stroke="#aaaaaa" stroke-width="1" />
      <line x1="550" y1="0" x2="530" y2="50" stroke="#aaaaaa" stroke-width="1" />
      <line x1="600" y1="0" x2="580" y2="50" stroke="#aaaaaa" stroke-width="1" />
      <line x1="650" y1="0" x2="630" y2="50" stroke="#aaaaaa" stroke-width="1" />
      <line x1="700" y1="0" x2="680" y2="50" stroke="#aaaaaa" stroke-width="1" />
      <line x1="750" y1="0" x2="730" y2="50" stroke="#aaaaaa" stroke-width="1" />
      <line x1="800" y1="0" x2="780" y2="50" stroke="#aaaaaa" stroke-width="1" />
      <line x1="850" y1="0" x2="830" y2="50" stroke="#aaaaaa" stroke-width="1" />
      <line x1="900" y1="0" x2="880" y2="50" stroke="#aaaaaa" stroke-width="1" />
    </g>
    <g opacity="0.6">
      <line x1="75" y1="50" x2="55" y2="100" stroke="#aaaaaa" stroke-width="1" />
      <line x1="125" y1="50" x2="105" y2="100" stroke="#aaaaaa" stroke-width="1" />
      <line x1="175" y1="50" x2="155" y2="100" stroke="#aaaaaa" stroke-width="1" />
      <line x1="225" y1="50" x2="205" y2="100" stroke="#aaaaaa" stroke-width="1" />
      <line x1="275" y1="50" x2="255" y2="100" stroke="#aaaaaa" stroke-width="1" />
      <line x1="325" y1="50" x2="305" y2="100" stroke="#aaaaaa" stroke-width="1" />
      <line x1="375" y1="50" x2="355" y2="100" stroke="#aaaaaa" stroke-width="1" />
      <line x1="425" y1="50" x2="405" y2="100" stroke="#aaaaaa" stroke-width="1" />
      <line x1="475" y1="50" x2="455" y2="100" stroke="#aaaaaa" stroke-width="1" />
      <line x1="525" y1="50" x2="505" y2="100" stroke="#aaaaaa" stroke-width="1" />
      <line x1="575" y1="50" x2="555" y2="100" stroke="#aaaaaa" stroke-width="1" />
      <line x1="625" y1="50" x2="605" y2="100" stroke="#aaaaaa" stroke-width="1" />
      <line x1="675" y1="50" x2="655" y2="100" stroke="#aaaaaa" stroke-width="1" />
      <line x1="725" y1="50" x2="705" y2="100" stroke="#aaaaaa" stroke-width="1" />
      <line x1="775" y1="50" x2="755" y2="100" stroke="#aaaaaa" stroke-width="1" />
      <line x1="825" y1="50" x2="805" y2="100" stroke="#aaaaaa" stroke-width="1" />
      <line x1="875" y1="50" x2="855" y2="100" stroke="#aaaaaa" stroke-width="1" />
      <line x1="925" y1="50" x2="905" y2="100" stroke="#aaaaaa" stroke-width="1" />
    </g>
    <g opacity="0.6">
      <line x1="50" y1="100" x2="30" y2="150" stroke="#aaaaaa" stroke-width="1" />
      <line x1="100" y1="100" x2="80" y2="150" stroke="#aaaaaa" stroke-width="1" />
      <line x1="150" y1="100" x2="130" y2="150" stroke="#aaaaaa" stroke-width="1" />
      <line x1="200" y1="100" x2="180" y2="150" stroke="#aaaaaa" stroke-width="1" />
      <line x1="250" y1="100" x2="230" y2="150" stroke="#aaaaaa" stroke-width="1" />
      <line x1="300" y1="100" x2="280" y2="150" stroke="#aaaaaa" stroke-width="1" />
      <line x1="350" y1="100" x2="330" y2="150" stroke="#aaaaaa" stroke-width="1" />
      <line x1="400" y1="100" x2="380" y2="150" stroke="#aaaaaa" stroke-width="1" />
      <line x1="450" y1="100" x2="430" y2="150" stroke="#aaaaaa" stroke-width="1" />
      <line x1="500" y1="100" x2="480" y2="150" stroke="#aaaaaa" stroke-width="1" />
      <line x1="550" y1="100" x2="530" y2="150" stroke="#aaaaaa" stroke-width="1" />
      <line x1="600" y1="100" x2="580" y2="150" stroke="#aaaaaa" stroke-width="1" />
      <line x1="650" y1="100" x2="630" y2="150" stroke="#aaaaaa" stroke-width="1" />
      <line x1="700" y1="100" x2="680" y2="150" stroke="#aaaaaa" stroke-width="1" />
      <line x1="750" y1="100" x2="730" y2="150" stroke="#aaaaaa" stroke-width="1" />
      <line x1="800" y1="100" x2="780" y2="150" stroke="#aaaaaa" stroke-width="1" />
      <line x1="850" y1="100" x2="830" y2="150" stroke="#aaaaaa" stroke-width="1" />
      <line x1="900" y1="100" x2="880" y2="150" stroke="#aaaaaa" stroke-width="1" />
    </g>
    <g opacity="0.6">
      <line x1="75" y1="150" x2="55" y2="200" stroke="#aaaaaa" stroke-width="1" />
      <line x1="125" y1="150" x2="105" y2="200" stroke="#aaaaaa" stroke-width="1" />
      <line x1="175" y1="150" x2="155" y2="200" stroke="#aaaaaa" stroke-width="1" />
      <line x1="225" y1="150" x2="205" y2="200" stroke="#aaaaaa" stroke-width="1" />
      <line x1="275" y1="150" x2="255" y2="200" stroke="#aaaaaa" stroke-width="1" />
      <line x1="325" y1="150" x2="305" y2="200" stroke="#aaaaaa" stroke-width="1" />
      <line x1="375" y1="150" x2="355" y2="200" stroke="#aaaaaa" stroke-width="1" />
      <line x1="425" y1="150" x2="405" y2="200" stroke="#aaaaaa" stroke-width="1" />
      <line x1="475" y1="150" x2="455" y2="200" stroke="#aaaaaa" stroke-width="1" />
      <line x1="525" y1="150" x2="505" y2="200" stroke="#aaaaaa" stroke-width="1" />
      <line x1="575" y1="150" x2="555" y2="200" stroke="#aaaaaa" stroke-width="1" />
      <line x1="625" y1="150" x2="605" y2="200" stroke="#aaaaaa" stroke-width="1" />
      <line x1="675" y1="150" x2="655" y2="200" stroke="#aaaaaa" stroke-width="1" />
      <line x1="725" y1="150" x2="705" y2="200" stroke="#aaaaaa" stroke-width="1" />
      <line x1="775" y1="150" x2="755" y2="200" stroke="#aaaaaa" stroke-width="1" />
      <line x1="825" y1="150" x2="805" y2="200" stroke="#aaaaaa" stroke-width="1" />
      <line x1="875" y1="150" x2="855" y2="200" stroke="#aaaaaa" stroke-width="1" />
      <line x1="925" y1="150" x2="905" y2="200" stroke="#aaaaaa" stroke-width="1" />
    </g>
    <g opacity="0.6">
      <line x1="50" y1="200" x2="30" y2="250" stroke="#aaaaaa" stroke-width="1" />
      <line x1="100" y1="200" x2="80" y2="250" stroke="#aaaaaa" stroke-width="1" />
      <line x1="150" y1="200" x2="130" y2="250" stroke="#aaaaaa" stroke-width="1" />
      <line x1="200" y1="200" x2="180" y2="250" stroke="#aaaaaa" stroke-width="1" />
      <line x1="250" y1="200" x2="230" y2="250" stroke="#aaaaaa" stroke-width="1" />
      <line x1="300" y1="200" x2="280" y2="250" stroke="#aaaaaa" stroke-width="1" />
      <line x1="350" y1="200" x2="330" y2="250" stroke="#aaaaaa" stroke-width="1" />
      <line x1="400" y1="200" x2="380" y2="250" stroke="#aaaaaa" stroke-width="1" />
      <line x1="450" y1="200" x2="430" y2="250" stroke="#aaaaaa" stroke-width="1" />
      <line x1="500" y1="200" x2="480" y2="250" stroke="#aaaaaa" stroke-width="1" />
      <line x1="550" y1="200" x2="530" y2="250" stroke="#aaaaaa" stroke-width="1" />
      <line x1="600" y1="200" x2="580" y2="250" stroke="#aaaaaa" stroke-width="1" />
      <line x1="650" y1="200" x2="630" y2="250" stroke="#aaaaaa" stroke-width="1" />
      <line x1="700" y1="200" x2="680" y2="250" stroke="#aaaaaa" stroke-width="1" />
      <line x1="750" y1="200" x2="730" y2="250" stroke="#aaaaaa" stroke-width="1" />
      <line x1="800" y1="200" x2="780" y2="250" stroke="#aaaaaa" stroke-width="1" />
      <line x1="850" y1="200" x2="830" y2="250" stroke="#aaaaaa" stroke-width="1" />
      <line x1="900" y1="200" x2="880" y2="250" stroke="#aaaaaa" stroke-width="1" />
    </g>
  </g>
  
  <!-- Wind effect -->
  <path d="M50,120 Q100,100 150,120 Q200,140 250,120" fill="none" stroke="#aaaaaa" stroke-width="1" opacity="0.5" />
  <path d="M200,150 Q300,120 400,150 Q500,180 600,150" fill="none" stroke="#aaaaaa" stroke-width="1" opacity="0.5" />
  <path d="M400,80 Q500,60 600,80 Q700,100 800,80" fill="none" stroke="#aaaaaa" stroke-width="1" opacity="0.5" />
  <path d="M700,180 Q800,160 900,180" fill="none" stroke="#aaaaaa" stroke-width="1" opacity="0.5" />
  <path d="M100,200 Q200,180 300,200 Q400,220 500,200" fill="none" stroke="#aaaaaa" stroke-width="1" opacity="0.5" />
  
  <!-- Lightning -->
  <g class="lightning">
    <path d="M200,0 L210,40 L190,45 L205,80 L185,85 L200,120" fill="none" stroke="#ffffff" stroke-width="3" opacity="0.8" />
    <path d="M600,0 L590,50 L610,55 L590,90 L610,95 L590,140" fill="none" stroke="#ffffff" stroke-width="3" opacity="0.8" />
    <path d="M800,10 L790,40 L805,45 L795,70 L810,75 L800,100" fill="none" stroke="#ffffff" stroke-width="2" opacity="0.7" />
  </g>
  
  <!-- Resized Mother hen (adjusted to fit within canvas) -->
  <g transform="translate(474, 128) scale(1.2)">
    <!-- Body of hen - gray tones -->
    <ellipse cx="0" cy="20" rx="80" ry="60" fill="#666666" stroke="#444444" stroke-width="2" />
    
    <!-- Left wing spread -->
    <path d="M-10,-10 
             C-70,-50 -120,-20 -150,30 
             C-160,40 -170,60 -170,80 
             C-150,70 -135,65 -120,70
             C-100,75 -80,80 -60,70
             C-45,65 -30,50 -15,40
             C-10,30 -5,20 -5,10 Z" 
          fill="#777777" stroke="#444444" stroke-width="1.5" />
    
    <!-- Left wing feather details -->
    <path d="M-20,0 C-40,-10 -60,-5 -80,10" fill="none" stroke="#444444" stroke-width="1" />
    <path d="M-25,10 C-45,0 -65,5 -85,20" fill="none" stroke="#444444" stroke-width="1" />
    <path d="M-30,20 C-50,10 -70,15 -90,30" fill="none" stroke="#444444" stroke-width="1" />
    <path d="M-35,30 C-55,20 -75,25 -95,40" fill="none" stroke="#444444" stroke-width="1" />
    <path d="M-40,40 C-60,30 -80,35 -100,50" fill="none" stroke="#444444" stroke-width="1" />
    <path d="M-45,50 C-65,40 -85,45 -105,60" fill="none" stroke="#444444" stroke-width="1" />
    
    <!-- Right wing spread -->
    <path d="M10,-10 
             C70,-50 120,-20 150,30 
             C160,40 170,60 170,80 
             C150,70 135,65 120,70
             C100,75 80,80 60,70
             C45,65 30,50 15,40
             C10,30 5,20 5,10 Z" 
          fill="#777777" stroke="#444444" stroke-width="1.5" />
    
    <!-- Right wing feather details -->
    <path d="M20,0 C40,-10 60,-5 80,10" fill="none" stroke="#444444" stroke-width="1" />
    <path d="M25,10 C45,0 65,5 85,20" fill="none" stroke="#444444" stroke-width="1" />
    <path d="M30,20 C50,10 70,15 90,30" fill="none" stroke="#444444" stroke-width="1" />
    <path d="M35,30 C55,20 75,25 95,40" fill="none" stroke="#444444" stroke-width="1" />
    <path d="M40,40 C60,30 80,35 100,50" fill="none" stroke="#444444" stroke-width="1" />
    <path d="M45,50 C65,40 85,45 105,60" fill="none" stroke="#444444" stroke-width="1" />
    
    <!-- Head -->
    <ellipse cx="0" cy="-35" rx="25" ry="30" fill="#666666" stroke="#444444" stroke-width="2" />
    
    <!-- Beak -->
    <path d="M0,-40 L25,-37 L0,-30 Z" fill="#888888" stroke="#444444" stroke-width="1" />
    
    <!-- Comb - expanded upward -->
    <path d="M-5,-70 L-10,-80 L-5,-65 L0,-85 L5,-65 L10,-80 L5,-70" fill="#888888" stroke="#444444" stroke-width="1" />
    
    <!-- Eye - determined look -->
    <circle cx="-10" cy="-40" r="3" fill="#222222" stroke="#000000" stroke-width="0.5" />
    
    <!-- Legs - adjusted for size -->
    <path d="M-20,75 L-25,90 L-15,90 M-20,75 L-5,90 L5,90" fill="none" stroke="#666666" stroke-width="3" />
    <path d="M20,75 L15,90 L25,90 M20,75 L35,90 L45,90" fill="none" stroke="#666666" stroke-width="3" />
    
    <!-- Redesigned Tiger (larger - at least 1/2 of wing width) -->
    <g transform="translate(-65, 25) scale(1.1) rotate(0)">
      <!-- Tiger body -->
      <ellipse cx="0" cy="0" rx="50" ry="25" fill="#e67e22" stroke="#d35400" stroke-width="2" />
      
      <!-- Tiger head -->
      <circle cx="-40" cy="-5" r="22" fill="#e67e22" stroke="#d35400" stroke-width="2" />
      
      <!-- Tiger stripes - more elegant pattern -->
      <path d="M30,0 C25,-5 20,-8 15,-8" fill="none" stroke="#d35400" stroke-width="2" />
      <path d="M25,10 C20,5 15,2 10,2" fill="none" stroke="#d35400" stroke-width="2" />
      <path d="M15,15 C10,10 5,8 0,8" fill="none" stroke="#d35400" stroke-width="2" />
      <path d="M5,12 C0,8 -5,5 -10,5" fill="none" stroke="#d35400" stroke-width="2" />
      <path d="M-5,10 C-10,5 -15,3 -20,3" fill="none" stroke="#d35400" stroke-width="2" />
      <path d="M-15,5 C-20,0 -25,-2 -30,-2" fill="none" stroke="#d35400" stroke-width="2" />
      
      <!-- Tiger face markings -->
      <path d="M-52,-10 C-48,-15 -44,-15 -40,-10" fill="none" stroke="#d35400" stroke-width="1.5" />
      <path d="M-40,-10 C-36,-15 -32,-15 -28,-10" fill="none" stroke="#d35400" stroke-width="1.5" />
      
      <!-- Tiger ears - more rounded -->
      <path d="M-55,-15 C-58,-25 -50,-25 -47,-15" fill="#e67e22" stroke="#d35400" stroke-width="1.5" />
      <path d="M-33,-15 C-30,-25 -22,-25 -25,-15" fill="#e67e22" stroke="#d35400" stroke-width="1.5" />
      <path d="M-53,-20 C-53,-18 -51,-16 -49,-18" fill="#d35400" stroke="none" />
      <path d="M-31,-20 C-31,-18 -29,-16 -27,-18" fill="#d35400" stroke="none" />
      
      <!-- Tiger eyes - more expressive -->
      <ellipse cx="-46" cy="-5" rx="3" ry="4" fill="#111111" />
      <ellipse cx="-34" cy="-5" rx="3" ry="4" fill="#111111" />
      <circle cx="-47" cy="-7" r="1" fill="#ffffff" />
      <circle cx="-35" cy="-7" r="1" fill="#ffffff" />
      
      <!-- Tiger nose and mouth -->
      <path d="M-42,3 C-40,5 -38,5 -36,3" fill="#d35400" />
      <path d="M-40,3 L-40,5 L-38,5 Z" fill="#111111" />
      <path d="M-42,5 C-40,8 -38,8 -36,5" fill="none" stroke="#111111" stroke-width="1" />
      
      <!-- Tiger whiskers -->
      <path d="M-38,2 L-48,0" fill="none" stroke="#111111" stroke-width="0.5" />
      <path d="M-38,3 L-48,3" fill="none" stroke="#111111" stroke-width="0.5" />
      <path d="M-38,4 L-48,6" fill="none" stroke="#111111" stroke-width="0.5" />
      <path d="M-40,2 L-30,0" fill="none" stroke="#111111" stroke-width="0.5" />
      <path d="M-40,3 L-30,3" fill="none" stroke="#111111" stroke-width="0.5" />
      <path d="M-40,4 L-30,6" fill="none" stroke="#111111" stroke-width="0.5" />
      
      <!-- Tiger legs - more natural pose -->
      <path d="M-20,20 C-18,25 -15,26 -10,25" fill="none" stroke="#e67e22" stroke-width="3" stroke-linecap="round" />
      <path d="M0,20 C2,25 5,26 10,25" fill="none" stroke="#e67e22" stroke-width="3" stroke-linecap="round" />
      <path d="M-15,15 C-13,20 -10,21 -5,20" fill="none" stroke="#e67e22" stroke-width="3" stroke-linecap="round" />
      <path d="M5,15 C7,20 10,21 15,20" fill="none" stroke="#e67e22" stroke-width="3" stroke-linecap="round" />
      
      <!-- Tiger tail - more natural curve -->
      <path d="M40,0 C55,5 60,15 55,25" fill="none" stroke="#e67e22" stroke-width="4" stroke-linecap="round" />
      <path d="M55,25 C50,30 45,28 40,25" fill="none" stroke="#e67e22" stroke-width="4" stroke-linecap="round" />
      <!-- Tail stripes -->
      <path d="M45,5 C46,6 47,7 48,6" fill="none" stroke="#d35400" stroke-width="1.5" />
      <path d="M52,15 C53,16 54,17 55,16" fill="none" stroke="#d35400" stroke-width="1.5" />
      <path d="M50,25 C51,26 52,27 53,26" fill="none" stroke="#d35400" stroke-width="1.5" />
    </g>
  </g>
</svg>
