<svg xmlns="http://www.w3.org/2000/svg" viewBox="0 0 1000 450">
  <!-- 背景渐变 -->
  <defs>
    <linearGradient id="bgGradient" x1="0%" y1="0%" x2="100%" y2="100%">
      <stop offset="0%" stop-color="#f8f9fa" />
      <stop offset="100%" stop-color="#edf2f7" />
    </linearGradient>
    
    <!-- 音乐模块渐变 -->
    <linearGradient id="musicGradient" x1="0%" y1="0%" x2="100%" y2="100%">
      <stop offset="0%" stop-color="#ffffff" stop-opacity="0.9" />
      <stop offset="100%" stop-color="#f5f7fa" stop-opacity="0.9" />
    </linearGradient>
    
    <!-- 音符渐变 -->
    <linearGradient id="noteGradient" x1="0%" y1="0%" x2="100%" y2="100%">
      <stop offset="0%" stop-color="#5475e5" />
      <stop offset="100%" stop-color="#3182ce" />
    </linearGradient>
    
    <!-- 视频模块渐变 -->
    <linearGradient id="videoGradient" x1="0%" y1="0%" x2="100%" y2="100%">
      <stop offset="0%" stop-color="#5475e5" stop-opacity="0.1" />
      <stop offset="100%" stop-color="#3182ce" stop-opacity="0.1" />
    </linearGradient>
    
    <!-- 光晕效果 -->
    <filter id="glow" x="-50%" y="-50%" width="200%" height="200%">
      <feGaussianBlur stdDeviation="2.5" result="blur" />
      <feComposite in="SourceGraphic" in2="blur" operator="over" />
    </filter>
    
    <!-- 音波图案 -->
    <pattern id="soundWave" width="100" height="30" patternUnits="userSpaceOnUse">
      <path d="M0 15 Q 12.5 5, 25 15 T 50 15 T 75 15 T 100 15" stroke="#5475e5" fill="none" stroke-width="0.5" stroke-opacity="0.2" />
      <path d="M0 15 Q 12.5 25, 25 15 T 50 15 T 75 15 T 100 15" stroke="#3182ce" fill="none" stroke-width="0.5" stroke-opacity="0.2" />
    </pattern>
    
    <!-- 律动线条 -->
    <pattern id="rhythmPattern" width="150" height="20" patternUnits="userSpaceOnUse">
      <path d="M0 10 L 10 10 L 15 5 L 20 15 L 25 5 L 30 15 L 35 10 L 50 10 L 55 5 L 60 15 L 65 10 L 80 10 L 85 5 L 90 15 L 95 10 L 110 10 L 115 5 L 120 15 L 125 10 L 140 10 L 145 5 L 150 10" stroke="#5475e5" stroke-width="0.5" fill="none" stroke-opacity="0.3" />
    </pattern>
    
    <!-- 视频帧图案 -->
    <pattern id="videoFrames" width="80" height="60" patternUnits="userSpaceOnUse">
      <rect x="0" y="0" width="80" height="45" fill="none" stroke="#3182ce" stroke-width="0.3" stroke-opacity="0.2" />
      <rect x="2" y="2" width="76" height="41" fill="none" stroke="#3182ce" stroke-width="0.3" stroke-opacity="0.2" />
      <path d="M40 22.5 L 30 15 L 30 30 Z" fill="#3182ce" fill-opacity="0.2" />
    </pattern>
  </defs>
  
  <!-- 背景 -->
  <rect width="1000" height="450" fill="url(#bgGradient)" />
  
  <!-- 音波背景装饰 -->
  <rect width="1000" height="450" fill="url(#soundWave)" opacity="0.2" />
  <rect width="1000" height="450" fill="url(#rhythmPattern)" opacity="0.15" />
  <rect width="1000" height="450" fill="url(#videoFrames)" opacity="0.1" />
  
  <!-- 代码注释装饰 - 背景 -->
  <g opacity="0.35">
    <text x="50" y="50" fill="#5475e5" font-family="monospace" font-size="10">
      /* 音乐与视频交织，创造沉浸式体验 */
    </text>
    <text x="200" y="90" fill="#3182ce" font-family="monospace" font-size="10">
      // 用声音和画面讲述故事，传递情感
    </text>
    <text x="350" y="130" fill="#5475e5" font-family="monospace" font-size="10">
      /* 每首歌都是一段旅程，每个视频都是一个世界 */
    </text>
    <text x="150" y="170" fill="#3182ce" font-family="monospace" font-size="10">
      // TODO: 探索新的视听语言，创造多维体验
    </text>
    <text x="250" y="210" fill="#5475e5" font-family="monospace" font-size="10">
      /* 视觉的韵律，听觉的画面，感官的对话 */
    </text>
    <text x="100" y="250" fill="#3182ce" font-family="monospace" font-size="10">
      // 视听融合，打破界限，重塑感知
    </text>
    <text x="300" y="290" fill="#5475e5" font-family="monospace" font-size="10">
      /* 在音乐与影像的交汇处，发现灵感 */
    </text>
  </g>
  
  <!-- 中心圆形 -->
  <g transform="translate(500, 225)">
    <circle cx="0" cy="0" r="70" fill="#ffffff" stroke="#5475e5" stroke-width="2" filter="drop-shadow(0px 2px 3px rgba(0,0,0,0.1))" />
    <text x="0" y="-10" font-family="Arial" font-size="16" font-weight="bold" fill="#2d3748" text-anchor="middle">律动溢清华</text>
    <text x="0" y="15" font-family="Arial" font-size="12" fill="#5475e5" text-anchor="middle">AUDIO & VIDEO</text>
    
    <!-- 中心音符与视频图标 -->
    <g transform="scale(0.5)">
      <!-- 音符部分 -->
      <path d="M-40,-20 Q-30,-30 -20,-20 Q-10,-10 -20,0 Q-30,10 -40,0 Q-50,-10 -40,-20 Z" fill="none" stroke="#5475e5" stroke-width="1.5" />
      <path d="M-40,0 L-40,40 L-45,45 L-50,40 L-45,35 Z" fill="none" stroke="#5475e5" stroke-width="1.5" />
      <!-- 视频框部分 -->
      <rect x="0" y="-30" width="60" height="40" rx="5" fill="none" stroke="#5475e5" stroke-width="1.5" />
      <path d="M20,-10 L40,-20 L40,0 Z" fill="none" stroke="#5475e5" stroke-width="1.5" />
      <!-- 连接线 -->
      <path d="M-20,20 C-10,20 0,10 0,-10" stroke="#5475e5" stroke-width="1" stroke-dasharray="2" fill="none" />
    </g>
  </g>
  
  <!-- 音乐模块1: 我的歌单 -->
  <g transform="translate(300, 150)">
    <circle cx="0" cy="0" r="45" fill="url(#musicGradient)" stroke="#3182ce" stroke-width="1.5" filter="drop-shadow(0px 2px 2px rgba(0,0,0,0.06))" />
    <text x="0" y="-5" font-family="Arial" font-size="12" font-weight="bold" fill="#2d3748" text-anchor="middle">我的歌单</text>
    <text x="0" y="15" font-family="Arial" font-size="10" fill="#3182ce" text-anchor="middle">MY PLAYLISTS</text>
    <!-- 歌单图标 -->
    <path d="M-15,-15 L15,-15 L15,15 L-15,15 Z" fill="none" stroke="#3182ce" stroke-width="1" />
    <path d="M-10,-8 L10,-8" fill="none" stroke="#3182ce" stroke-width="1" />
    <path d="M-10,0 L10,0" fill="none" stroke="#3182ce" stroke-width="1" />
    <path d="M-10,8 L10,8" fill="none" stroke="#3182ce" stroke-width="1" />
  </g>
  
  <!-- 音乐模块2: 推荐电台 -->
  <g transform="translate(650, 125)">
    <circle cx="0" cy="0" r="45" fill="url(#musicGradient)" stroke="#38a169" stroke-width="1.5" filter="drop-shadow(0px 2px 2px rgba(0,0,0,0.06))" />
    <text x="0" y="-5" font-family="Arial" font-size="12" font-weight="bold" fill="#2d3748" text-anchor="middle">推荐电台</text>
    <text x="0" y="15" font-family="Arial" font-size="10" fill="#38a169" text-anchor="middle">STATIONS</text>
    <!-- 电台图标 -->
    <g transform="scale(0.8)">
      <circle cx="0" cy="0" r="15" fill="none" stroke="#38a169" stroke-width="1" />
      <path d="M-20,-20 L-10,-10" fill="none" stroke="#38a169" stroke-width="1" />
      <path d="M20,-20 L10,-10" fill="none" stroke="#38a169" stroke-width="1" />
      <path d="M-20,20 L-10,10" fill="none" stroke="#38a169" stroke-width="1" />
      <path d="M20,20 L10,10" fill="none" stroke="#38a169" stroke-width="1" />
    </g>
  </g>
  
  <!-- 音乐模块3: 新歌发现 -->
  <g transform="translate(750, 250)">
    <circle cx="0" cy="0" r="45" fill="url(#musicGradient)" stroke="#ed8936" stroke-width="1.5" filter="drop-shadow(0px 2px 2px rgba(0,0,0,0.06))" />
    <text x="0" y="-5" font-family="Arial" font-size="12" font-weight="bold" fill="#2d3748" text-anchor="middle">新歌发现</text>
    <text x="0" y="15" font-family="Arial" font-size="10" fill="#ed8936" text-anchor="middle">DISCOVER</text>
    <!-- 新歌图标 -->
    <g transform="scale(0.8)">
      <circle cx="0" cy="0" r="15" fill="none" stroke="#ed8936" stroke-width="1" />
      <path d="M-15,0 L15,0" fill="none" stroke="#ed8936" stroke-width="1" />
      <path d="M0,-15 L0,15" fill="none" stroke="#ed8936" stroke-width="1" />
    </g>
  </g>
  
  <!-- 视频模块1: 视频收藏 -->
  <g transform="translate(350, 325)">
    <circle cx="0" cy="0" r="45" fill="url(#musicGradient)" stroke="#e53e3e" stroke-width="1.5" filter="drop-shadow(0px 2px 2px rgba(0,0,0,0.06))" />
    <text x="0" y="-5" font-family="Arial" font-size="12" font-weight="bold" fill="#2d3748" text-anchor="middle">视频收藏</text>
    <text x="0" y="15" font-family="Arial" font-size="10" fill="#e53e3e" text-anchor="middle">VIDEO COLLECTION</text>
    <!-- 视频图标 -->
    <g transform="scale(0.7)">
      <rect x="-20" y="-15" width="40" height="30" rx="5" fill="none" stroke="#e53e3e" stroke-width="1.5" />
      <path d="M-5,0 L10,-10 L10,10 Z" fill="none" stroke="#e53e3e" stroke-width="1.5" />
    </g>
  </g>
  
  <!-- 视频模块2: MV精选 -->
  <g transform="translate(520, 375)">
    <circle cx="0" cy="0" r="45" fill="url(#musicGradient)" stroke="#805ad5" stroke-width="1.5" filter="drop-shadow(0px 2px 2px rgba(0,0,0,0.06))" />
    <text x="0" y="-5" font-family="Arial" font-size="12" font-weight="bold" fill="#2d3748" text-anchor="middle">MV精选</text>
    <text x="0" y="15" font-family="Arial" font-size="10" fill="#805ad5" text-anchor="middle">MUSIC VIDEOS</text>
    <!-- MV图标 -->
    <g transform="scale(0.7)">
      <rect x="-20" y="-15" width="40" height="30" rx="5" fill="none" stroke="#805ad5" stroke-width="1.5" />
      <path d="M-5,0 L10,-10 L10,10 Z" fill="none" stroke="#805ad5" stroke-width="1.5" />
      <path d="M-25,-25 Q-15,-35 -5,-25" fill="none" stroke="#805ad5" stroke-width="1" />
      <path d="M-25,-25 Q-15,-35 -5,-25" fill="none" stroke="#805ad5" stroke-width="1 stroke-width="1" />
      <path d="M-25,-25 Q-15,-35 -5,-25" fill="none" stroke="#805ad5" stroke-width="1" />
    </g>
  </g>
  
  <!-- 视频模块3: 直播频道 -->
  <g transform="translate(650, 320)">
    <circle cx="0" cy="0" r="45" fill="url(#musicGradient)" stroke="#dd6b20" stroke-width="1.5" filter="drop-shadow(0px 2px 2px rgba(0,0,0,0.06))" />
    <text x="0" y="-5" font-family="Arial" font-size="12" font-weight="bold" fill="#2d3748" text-anchor="middle">直播频道</text>
    <text x="0" y="15" font-family="Arial" font-size="10" fill="#dd6b20" text-anchor="middle">LIVE STREAMING</text>
    <!-- 直播图标 -->
    <g transform="scale(0.7)">
      <rect x="-20" y="-15" width="40" height="30" rx="5" fill="none" stroke="#dd6b20" stroke-width="1.5" />
      <circle cx="-5" cy="0" r="5" fill="none" stroke="#dd6b20" stroke-width="1.5" />
      <circle cx="-5" cy="0" r="2" fill="#dd6b20" />
      <path d="M5,-5 L15,-5 L15,5 L5,5 Z" fill="none" stroke="#dd6b20" stroke-width="1" />
    </g>
  </g>
  
  <!-- 视频模块4: 教学视频 -->
  <g transform="translate(200, 250)">
    <circle cx="0" cy="0" r="45" fill="url(#musicGradient)" stroke="#4299e1" stroke-width="1.5" filter="drop-shadow(0px 2px 2px rgba(0,0,0,0.06))" />
    <text x="0" y="-5" font-family="Arial" font-size="12" font-weight="bold" fill="#2d3748" text-anchor="middle">教学视频</text>
    <text x="0" y="15" font-family="Arial" font-size="10" fill="#4299e1" text-anchor="middle">TUTORIALS</text>
    <!-- 教学图标 -->
    <g transform="scale(0.7)">
      <rect x="-20" y="-15" width="40" height="30" rx="5" fill="none" stroke="#4299e1" stroke-width="1.5" />
      <path d="M-10,-10 L-10,10 L10,0 Z" fill="none" stroke="#4299e1" stroke-width="1" />
      <path d="M-30,20 L30,20" stroke="#4299e1" stroke-width="1" />
      <path d="M-25,25 L25,25" stroke="#4299e1" stroke-width="1" />
    </g>
  </g>
  
  <!-- 连接线 -->
  <g opacity="0.4">
    <path d="M450,180 L300,150" stroke="#3182ce" stroke-width="1" fill="none" stroke-dasharray="2" />
    <path d="M550,180 L650,125" stroke="#38a169" stroke-width="1" fill="none" stroke-dasharray="2" />
    <path d="M560,240 L750,250" stroke="#ed8936" stroke-width="1" fill="none" stroke-dasharray="2" />
    <path d="M430,260 L350,325" stroke="#e53e3e" stroke-width="1" fill="none" stroke-dasharray="2" />
    <path d="M500,295 L520,375" stroke="#805ad5" stroke-width="1" fill="none" stroke-dasharray="2" />
    <path d="M570,260 L650,320" stroke="#dd6b20" stroke-width="1" fill="none" stroke-dasharray="2" />
    <path d="M430,200 L200,250" stroke="#4299e1" stroke-width="1" fill="none" stroke-dasharray="2" />
  </g>
  
  <!-- 装饰性粒子 - 音符 -->
  <g opacity="0.6">
    <!-- 音符 -->
    <path d="M450,150 Q460,140 470,150 Q480,160 470,170 Q460,180 450,170 Q440,160 450,150 Z" fill="none" stroke="#3182ce" stroke-width="1" />
    <path d="M450,170 L450,190" stroke="#3182ce" stroke-width="1" />
    <circle cx="445" cy="190" r="5" fill="none" stroke="#3182ce" stroke-width="1" />
    
    <path d="M580,220 Q590,210 600,220 Q610,230 600,240 Q590,250 580,240 Q570,230 580,220 Z" fill="none" stroke="#38a169" stroke-width="1" />
    <path d="M580,240 L580,260" stroke="#38a169" stroke-width="1" />
    <circle cx="575" cy="260" r="5" fill="none" stroke="#38a169" stroke-width="1" />
    
    <path d="M680,260 Q690,250 700,260 Q710,270 700,280 Q690,290 680,280 Q670,270 680,260 Z" fill="none" stroke="#ed8936" stroke-width="1" />
    <path d="M680,280 L680,300" stroke="#ed8936" stroke-width="1" />
    <circle cx="675" cy="300" r="5" fill="none" stroke="#ed8936" stroke-width="1" />
    
    <!-- 视频帧 -->
    <rect x="380" y="280" width="20" height="15" rx="2" fill="none" stroke="#e53e3e" stroke-width="1" />
    <path d="M385,287.5 L395,282.5 L395,292.5 Z" fill="none" stroke="#e53e3e" stroke-width="1" />
    
    <rect x="520" y="300" width="20" height="15" rx="2" fill="none" stroke="#805ad5" stroke-width="1" />
    <path d="M525,307.5 L535,302.5 L535,312.5 Z" fill="none" stroke="#805ad5" stroke-width="1" />
    
    <rect x="800" y="160" width="20" height="15" rx="2" fill="none" stroke="#dd6b20" stroke-width="1" />
    <path d="M805,167.5 L815,162.5 L815,172.5 Z" fill="none" stroke="#dd6b20" stroke-width="1" />
    
    <rect x="250" y="180" width="20" height="15" rx="2" fill="none" stroke="#4299e1" stroke-width="1" />
    <path d="M255,187.5 L265,182.5 L265,192.5 Z" fill="none" stroke="#4299e1" stroke-width="1" />
  </g>
  
  <!-- 波形图装饰 -->
  <g opacity="0.3" transform="translate(500, 150)">
    <path d="M-200,0 L-190,5 L-180,-5 L-170,5 L-160,-5 L-150,5 L-140,-5 L-130,5 L-120,-5 L-110,5 L-100,-5 L-90,5 L-80,-5 L-70,5 L-60,-5 L-50,5 L-40,-5 L-30,5 L-20,-5 L-10,5 L0,-5 L10,5 L20,-5 L30,5 L40,-5 L50,5 L60,-5 L70,5 L80,-5 L90,5 L100,-5 L110,5 L120,-5 L130,5 L140,-5 L150,5 L160,-5 L170,5 L180,-5 L190,5 L200,0" 
          stroke="#5475e5" stroke-width="0.5" fill="none" />
  </g>
  
  <!-- 频谱图装饰 -->
  <g opacity="0.2" transform="translate(500, 300)">
    <rect x="-200" y="-10" width="4" height="10" fill="#3182ce" />
    <rect x="-195" y="-20" width="4" height="20" fill="#3182ce" />
    <rect x="-190" y="-15" width="4" height="15" fill="#3182ce" />
    <rect x="-185" y="-5" width="4" height="5" fill="#3182ce" />
    <rect x="-180" y="-25" width="4" height="25" fill="#3182ce" />
    <rect x="-175" y="-8" width="4" height="8" fill="#3182ce" />
    <rect x="-170" y="-12" width="4" height="12" fill="#3182ce" />
    <rect x="-165" y="-18" width="4" height="18" fill="#3182ce" />
    <rect x="-160" y="-7" width="4" height="7" fill="#3182ce" />
    <rect x="-155" y="-22" width="4" height="22" fill="#3182ce" />
    <rect x="-150" y="-14" width="4" height="14" fill="#3182ce" />
    <rect x="-145" y="-6" width="4" height="6" fill="#3182ce" />
    <rect x="-140" y="-16" width="4" height="16" fill="#3182ce" />
    <rect x="-135" y="-23" width="4" height="23" fill="#3182ce" />
    <rect x="-130" y="-12" width="4" height="12" fill="#3182ce" />
    <rect x="-125" y="-5" width="4" height="5" fill="#3182ce" />
    <rect x="-120" y="-17" width="4" height="17" fill="#3182ce" />
    <rect x="-115" y="-8" width="4" height="8" fill="#3182ce" />
    <rect x="-110" y="-20" width="4" height="20" fill="#3182ce" />
    <rect x="-105" y="-15" width="4" height="15" fill="#3182ce" />
    <rect x="-100" y="-10" width="4" height="10" fill="#3182ce" />
    <rect x="-95" y="-18" width="4" height="18" fill="#3182ce" />
    <rect x="-90" y="-22" width="4" height="22" fill="#3182ce" />
    <rect x="-85" y="-12" width="4" height="12" fill="#3182ce" />
    <rect x="-80" y="-7" width="4" height="7" fill="#3182ce" />
    <rect x="-75" y="-15" width="4" height="15" fill="#3182ce" />
    <rect x="-70" y="-19" width="4" height="19" fill="#3182ce" />
    <rect x="-65" y="-9" width="4" height="9" fill="#3182ce" />
    <rect x="-60" y="-14" width="4" height="14" fill="#3182ce" />
    <rect x="-55" y="-21" width="4" height="21" fill="#3182ce" />
    <rect x="-50" y="-17" width="4" height="17" fill="#3182ce" />
    <rect x="-45" y="-8" width="4" height="8" fill="#3182ce" />
    <rect x="-40" y="-12" width="4" height="12" fill="#3182ce" />
    <rect x="-35" y="-16" width="4" height="16" fill="#3182ce" />
    <rect x="-30" y="-23" width="4" height="23" fill="#3182ce" />
    <rect x="-25" y="-18" width="4" height="18" fill="#3182ce" />
    <rect x="-20" y="-5" width="4" height="5" fill="#3182ce" />
    <rect x="-15" y="-10" width="4" height="10" fill="#3182ce" />
    <rect x="-10" y="-15" width="4" height="15" fill="#3182ce" />
    <rect x="-5" y="-20" width="4" height="20" fill="#3182ce" />
    <rect x="0" y="-25" width="4" height="25" fill="#3182ce" />
    <rect x="5" y="-15" width="4" height="15" fill="#3182ce" />
    <rect x="10" y="-10" width="4" height="10" fill="#3182ce" />
    <rect x="15" y="-18" width="4" height="18" fill="#3182ce" />
    <rect x="20" y="-22" width="4" height="22" fill="#3182ce" />
    <rect x="25" y="-12" width="4" height="12" fill="#3182ce" />
    <rect x="30" y="-7" width="4" height="7" fill="#3182ce" />
    <rect x="35" y="-15" width="4" height="15" fill="#3182ce" />
    <rect x="40" y="-19" width="4" height="19" fill="#3182ce" />
    <rect x="45" y="-9" width="4" height="9" fill="#3182ce" />
    <rect x="50" y="-13" width="4" height="13" fill="#3182ce" />
    <rect x="55" y="-19" width="4" height="19" fill="#3182ce" />
    <rect x="60" y="-25" width="4" height="25" fill="#3182ce" />
    <rect x="65" y="-13" width="4" height="13" fill="#3182ce" />
    <rect x="70" y="-7" width="4" height="7" fill="#3182ce" />
    <rect x="75" y="-16" width="4" height="16" fill="#3182ce" />
    <rect x="80" y="-21" width="4" height="21" fill="#3182ce" />
    <rect x="85" y="-12" width="4" height="12" fill="#3182ce" />
    <rect x="90" y="-8" width="4" height="8" fill="#3182ce" />
    <rect x="95" y="-17" width="4" height="17" fill="#3182ce" />
    <rect x="100" y="-13" width="4" height="13" fill="#3182ce" />
    <rect x="105" y="-9" width="4" height="9" fill="#3182ce" />
    <rect x="110" y="-12" width="4" height="12" fill="#3182ce" />
    <rect x="115" y="-16" width="4" height="16" fill="#3182ce" />
    <rect x="120" y="-22" width="4" height="22" fill="#3182ce" />
    <rect x="125" y="-14" width="4" height="14" fill="#3182ce" />
    <rect x="130" y="-8" width="4" height="8" fill="#3182ce" />
    <rect x="135" y="-19" width="4" height="19" fill="#3182ce" />
    <rect x="140" y="-24" width="4" height="24" fill="#3182ce" />
    <rect x="145" y="-15" width="4" height="15" fill="#3182ce" />
    <rect x="150" y="-10" width="4" height="10" fill="#3182ce" />
    <rect x="155" y="-15" width="4" height="15" fill="#3182ce" />
    <rect x="160" y="-23" width="4" height="23" fill="#3182ce" />
    <rect x="165" y="-17" width="4" height="17" fill="#3182ce" />
    <rect x="170" y="-8" width="4" height="8" fill="#3182ce" />
    <rect x="175" y="-11" width="4" height="11" fill="#3182ce" />
    <rect x="180" y="-16" width="4" height="16" fill="#3182ce" />
    <rect x="185" y="-19" width="4" height="19" fill="#3182ce" />
    <rect x="190" y="-12" width="4" height="12" fill="#3182ce" />
    <rect x="195" y="-6" width="4" height="6" fill="#3182ce" />
  </g>
  
  <!-- 标题 -->
  <text x="500" y="70" font-family="Arial" font-size="30" font-weight="bold" fill="#2d3748" text-anchor="middle" style="letter-spacing: 5px;">律动溢清华</text>
  <text x="500" y="95" font-family="Arial" font-size="14" fill="#5475e5" text-anchor="middle" style="letter-spacing: 2px;">AUDIO & VIDEO SPACE</text>
  
  <!-- 视频播放进度条装饰 -->
  <g transform="translate(500, 350)">
    <rect x="-150" y="0" width="300" height="6" rx="3" fill="#e2e8f0" />
    <rect x="-150" y="0" width="120" height="6" rx="3" fill="url(#noteGradient)" />
    <circle cx="-30" cy="3" r="6" fill="#5475e5" filter="drop-shadow(0px 1px 2px rgba(0,0,0,0.1))" />
  </g>
  
  <!-- 媒体控制按钮装饰 -->
  <g transform="translate(500, 370)" opacity="0.7">
    <!-- 后退 -->
    <circle cx="-50" cy="0" r="10" fill="#e2e8f0" />
    <path d="M-55,-5 L-48,0 L-55,5 Z" fill="#5475e5" />
    <path d="M-48,-5 L-41,0 L-48,5 Z" fill="#5475e5" />
    
    <!-- 播放/暂停 -->
    <circle cx="0" cy="0" r="15" fill="#e2e8f0" />
    <rect x="-4" y="-5" width="3" height="10" fill="#5475e5" />
    <rect x="1" y="-5" width="3" height="10" fill="#5475e5" />
    
    <!-- 前进 -->
    <circle cx="50" cy="0" r="10" fill="#e2e8f0" />
    <path d="M45,-5 L52,0 L45,5 Z" fill="#5475e5" />
    <path d="M52,-5 L59,0 L52,5 Z" fill="#5475e5" />
  </g>
  
  <!-- 底部装饰 -->
  <rect x="350" y="415" width="300" height="1" fill="#5475e5" />
  <text x="500" y="435" font-family="monospace" font-size="12" fill="#5475e5" text-anchor="middle">// 声音与画面的交响，感官的视听盛宴</text>
</svg>
